<?xml version="1.0" encoding="UTF-8"?>
<svg id="Layer_2" data-name="Layer 2" xmlns="http://www.w3.org/2000/svg" viewBox="0 0 7.5 13.12">
  <defs>
    <style>
      .cls-1 {
        fill: #656565;
        stroke-width: 0px;
      }
    </style>
  </defs>
  <g id="Layer_1-2" data-name="Layer 1">
    <g>
      <rect class="cls-1" x="6.56" y="6.56" width=".94" height=".94"/>
      <rect class="cls-1" x="6.56" y="5.62" width=".94" height=".94"/>
      <rect class="cls-1" x="5.63" y="6.56" width=".93" height=".94"/>
      <rect class="cls-1" x="5.63" y="5.62" width=".93" height=".94"/>
      <rect class="cls-1" x="4.69" y="8.44" width=".94" height=".93"/>
      <rect class="cls-1" x="4.69" y="7.5" width=".94" height=".94"/>
      <rect class="cls-1" x="4.69" y="6.56" width=".94" height=".94"/>
      <rect class="cls-1" x="4.69" y="5.62" width=".94" height=".94"/>
      <rect class="cls-1" x="4.69" y="4.68" width=".94" height=".94"/>
      <rect class="cls-1" x="4.69" y="3.75" width=".94" height=".93"/>
      <rect class="cls-1" x="3.75" y="8.44" width=".94" height=".93"/>
      <rect class="cls-1" x="3.75" y="7.5" width=".94" height=".94"/>
      <rect class="cls-1" x="3.75" y="6.56" width=".94" height=".94"/>
      <rect class="cls-1" x="3.75" y="5.62" width=".94" height=".94"/>
      <rect class="cls-1" x="3.75" y="4.68" width=".94" height=".94"/>
      <rect class="cls-1" x="3.75" y="3.75" width=".94" height=".93"/>
      <rect class="cls-1" x="2.81" y="10.31" width=".94" height=".94"/>
      <rect class="cls-1" x="2.81" y="9.37" width=".94" height=".94"/>
      <rect class="cls-1" x="2.81" y="8.44" width=".94" height=".93"/>
      <rect class="cls-1" x="2.81" y="7.5" width=".94" height=".94"/>
      <rect class="cls-1" x="2.81" y="6.56" width=".94" height=".94"/>
      <rect class="cls-1" x="2.81" y="5.62" width=".94" height=".94"/>
      <rect class="cls-1" x="2.81" y="4.68" width=".94" height=".94"/>
      <rect class="cls-1" x="2.81" y="3.75" width=".94" height=".93"/>
      <rect class="cls-1" x="2.81" y="2.81" width=".94" height=".94"/>
      <rect class="cls-1" x="2.81" y="1.87" width=".94" height=".94"/>
      <rect class="cls-1" x="1.87" y="10.31" width=".94" height=".94"/>
      <rect class="cls-1" x="1.87" y="9.37" width=".94" height=".94"/>
      <rect class="cls-1" x="1.87" y="8.44" width=".94" height=".93"/>
      <rect class="cls-1" x="1.87" y="7.5" width=".94" height=".94"/>
      <rect class="cls-1" x="1.87" y="6.56" width=".94" height=".94"/>
      <rect class="cls-1" x="1.87" y="5.62" width=".94" height=".94"/>
      <rect class="cls-1" x="1.87" y="4.68" width=".94" height=".94"/>
      <rect class="cls-1" x="1.87" y="3.75" width=".94" height=".93"/>
      <rect class="cls-1" x="1.87" y="2.81" width=".94" height=".94"/>
      <rect class="cls-1" x="1.87" y="1.87" width=".94" height=".94"/>
      <rect class="cls-1" x=".94" y="12.18" width=".93" height=".94"/>
      <rect class="cls-1" x=".94" y="11.25" width=".93" height=".93"/>
      <rect class="cls-1" x=".94" y="10.31" width=".93" height=".94"/>
      <rect class="cls-1" x=".94" y="9.37" width=".93" height=".94"/>
      <rect class="cls-1" x=".94" y="8.44" width=".93" height=".93"/>
      <rect class="cls-1" x=".94" y="7.5" width=".93" height=".94"/>
      <rect class="cls-1" x=".94" y="6.56" width=".93" height=".94"/>
      <rect class="cls-1" x=".94" y="5.62" width=".93" height=".94"/>
      <rect class="cls-1" x=".94" y="4.68" width=".93" height=".94"/>
      <rect class="cls-1" x=".94" y="3.75" width=".93" height=".93"/>
      <rect class="cls-1" x=".94" y="2.81" width=".93" height=".94"/>
      <rect class="cls-1" x=".94" y="1.87" width=".93" height=".94"/>
      <rect class="cls-1" x=".94" y=".94" width=".93" height=".93"/>
      <rect class="cls-1" x=".94" width=".93" height=".94"/>
      <rect class="cls-1" y="12.18" width=".94" height=".94"/>
      <rect class="cls-1" y="11.25" width=".94" height=".93"/>
      <rect class="cls-1" y="10.31" width=".94" height=".94"/>
      <rect class="cls-1" y="9.37" width=".94" height=".94"/>
      <rect class="cls-1" y="8.44" width=".94" height=".93"/>
      <rect class="cls-1" y="7.5" width=".94" height=".94"/>
      <rect class="cls-1" y="6.56" width=".94" height=".94"/>
      <rect class="cls-1" y="5.62" width=".94" height=".94"/>
      <rect class="cls-1" y="4.68" width=".94" height=".94"/>
      <rect class="cls-1" y="3.75" width=".94" height=".93"/>
      <rect class="cls-1" y="2.81" width=".94" height=".94"/>
      <rect class="cls-1" y="1.87" width=".94" height=".94"/>
      <rect class="cls-1" y=".94" width=".94" height=".93"/>
      <rect class="cls-1" width=".94" height=".94"/>
    </g>
  </g>
</svg>