<?xml version="1.0" encoding="UTF-8"?>
<svg id="Layer_2" data-name="Layer 2" xmlns="http://www.w3.org/2000/svg" viewBox="0 0 10.31 10.31">
  <defs>
    <style>
      .cls-1 {
        fill: #000;
        stroke-width: 0px;
      }
    </style>
  </defs>
  <g id="Layer_1-2" data-name="Layer 1">
    <g>
      <rect class="cls-1" x="4.69" y="4.68" width=".94" height=".94"/>
      <rect class="cls-1" x="5.63" y="3.74" width=".94" height=".94"/>
      <rect class="cls-1" x="9.38" y="6.56" width=".93" height=".94"/>
      <rect class="cls-1" x="9.38" y="8.43" width=".93" height=".94"/>
      <rect class="cls-1" x="9.38" y="7.5" width=".93" height=".93"/>
      <rect class="cls-1" x="9.38" y="2.81" width=".93" height=".93"/>
      <rect class="cls-1" x="9.38" y="1.87" width=".93" height=".94"/>
      <rect class="cls-1" x="9.38" y=".93" width=".93" height=".94"/>
      <rect class="cls-1" x="9.38" width=".93" height=".93"/>
      <rect class="cls-1" x="8.44" y="9.37" width=".94" height=".94"/>
      <rect class="cls-1" x="8.44" y="8.43" width=".94" height=".94"/>
      <rect class="cls-1" x="8.44" y=".93" width=".94" height=".94"/>
      <rect class="cls-1" x="8.44" width=".94" height=".93"/>
      <rect class="cls-1" x="7.5" y="9.37" width=".94" height=".94"/>
      <rect class="cls-1" x="7.5" y="1.87" width=".94" height=".94"/>
      <rect class="cls-1" x="7.5" width=".94" height=".93"/>
      <rect class="cls-1" x="6.57" y="9.37" width=".93" height=".94"/>
      <rect class="cls-1" x="6.57" y="2.81" width=".93" height=".93"/>
      <rect class="cls-1" x="6.57" width=".93" height=".93"/>
      <rect class="cls-1" x="2.81" y="9.37" width=".94" height=".94"/>
      <rect class="cls-1" x="2.81" width=".94" height=".93"/>
      <rect class="cls-1" x="1.88" y="9.37" width=".93" height=".94"/>
      <rect class="cls-1" x="1.88" width=".93" height=".93"/>
      <rect class="cls-1" x=".94" y="9.37" width=".94" height=".94"/>
      <rect class="cls-1" x=".94" y="8.43" width=".94" height=".94"/>
      <rect class="cls-1" x=".94" y=".93" width=".94" height=".94"/>
      <rect class="cls-1" x=".94" width=".94" height=".93"/>
      <rect class="cls-1" y="8.43" width=".94" height=".94"/>
      <rect class="cls-1" y="7.5" width=".94" height=".93"/>
      <rect class="cls-1" y="6.56" width=".94" height=".94"/>
      <rect class="cls-1" y="2.81" width=".94" height=".93"/>
      <rect class="cls-1" y="1.87" width=".94" height=".94"/>
      <rect class="cls-1" y=".93" width=".94" height=".94"/>
    </g>
  </g>
</svg>