<?xml version="1.0" encoding="UTF-8"?>
<svg id="Layer_2" data-name="Layer 2" xmlns="http://www.w3.org/2000/svg" viewBox="0 0 109.59 124.96">
  <defs>
    <style>
      .cls-1, .cls-2 {
        fill: #231f20;
      }

      .cls-1, .cls-3 {
        stroke-width: 0px;
      }

      .cls-2 {
        stroke: #231f20;
        stroke-miterlimit: 10;
        stroke-width: 5px;
      }

      .cls-3 {
        fill: #27aae1;
      }
    </style>
  </defs>
  <g id="Layer_1-2" data-name="Layer 1">
    <g>
      <path class="cls-3" d="M57.04,21.62c-36.06,0-50,24.16-50,50.05,0,27.17,22.81,50,50,50s50-22.39,50-50h-50"/>
      <path class="cls-1" d="M57.04,43.24c-3.72-5.47-8.76-8.44-15.02-8.28-6.61.79-12.71,4.26-17.33,8.98-6.41,6.68-9.66,16.27-10.59,25.59-2.07,16.5,6.67,33.4,20.9,42.17,30.42,19,70.42-4.22,69.54-40.02,0,0,2.5,2.5,2.5,2.5h-50v-5h52.55l-.05,2.5c-.35,32.85-31.05,58.51-63.54,52.38C18.26,119.02-1.62,93.02.1,64.95.47,43.81,11.49,23.89,31.35,15.21c9.05-4.22,18.04-8.53,25.69-15.21,0,0,0,43.24,0,43.24h0Z"/>
    </g>
    <line class="cls-2" x1="59.52" y1="57.75" x2="59.52" y2="74.19"/>
    <line class="cls-2" x1="66.49" y1="63.33" x2="66.49" y2="68"/>
    <line class="cls-2" x1="73.47" y1="59.75" x2="73.47" y2="68"/>
    <line class="cls-2" x1="80.85" y1="61.65" x2="80.85" y2="68"/>
    <line class="cls-2" x1="87.9" y1="64.51" x2="87.9" y2="68"/>
    <line class="cls-2" x1="94.9" y1="61.65" x2="94.9" y2="68"/>
    <line class="cls-2" x1="101.9" y1="57.75" x2="101.9" y2="68"/>
    <line class="cls-2" x1="94.92" y1="80" x2="94.92" y2="73.94"/>
    <line class="cls-2" x1="87.95" y1="77.12" x2="87.95" y2="73.94"/>
    <line class="cls-2" x1="80.57" y1="80.29" x2="80.57" y2="73.94"/>
    <line class="cls-2" x1="73.52" y1="82" x2="73.52" y2="73.94"/>
    <line class="cls-2" x1="66.52" y1="77.97" x2="66.52" y2="73.94"/>
  </g>
</svg>